<svg xmlns="http://www.w3.org/2000/svg" width="500" height="500" style="shape-rendering:geometricPrecision;text-rendering:geometricPrecision;image-rendering:optimizeQuality;fill-rule:evenodd;clip-rule:evenodd"><path style="opacity:.977" fill="#092b54" d="M236.5 13.5c89.833.48 158.333 38.48 205.5 114 31.469 57.551 38.135 117.884 20 181-25.832 76.001-76.999 126.167-153.5 150.5-92.605 22.902-171.438-.264-236.5-69.5-51.003-62.704-66.336-133.37-46-212C46.877 110.627 89.044 62.46 152.5 33c26.988-11.427 54.988-17.927 84-19.5z"/><path style="opacity:1" fill="#fcfcfd" d="M256.5 35.5c15.481 3.554 30.148 9.388 44 17.5a912.65 912.65 0 0 0-27 23.5 26.329 26.329 0 0 0-5 2c-27.709 1.886-54.209 8.552-79.5 20a239.498 239.498 0 0 0-42-19c2.284-8.252 5.45-16.252 9.5-24 31.438-15.64 64.771-22.306 100-20z"/><path style="opacity:1" fill="#c1c1c1" d="M284.5 54.5a2.427 2.427 0 0 1 2 .5l-17 15c-27.645 3.078-54.311 9.911-80 20.5a194.844 194.844 0 0 0-27-11.5 299.686 299.686 0 0 0 29 2c24.407-9.816 49.741-15.816 76-18a101.21 101.21 0 0 0 17-8.5z"/><path style="opacity:1" fill="#fcfcfd" d="M122.5 75.5c8.269-.118 15.936 1.716 23 5.5a181.136 181.136 0 0 0-7.5 47.5c-21.122 16.286-39.289 35.286-54.5 57a138.175 138.175 0 0 0-38.5 13 8.435 8.435 0 0 1-.5-4c11.584-49.225 37.584-88.892 78-119z"/><path style="opacity:1" fill="#9facc0" d="M273.5 76.5c2.107.968 4.441 1.302 7 1-2.787.977-5.787 1.31-9 1h-3a26.329 26.329 0 0 1 5-2z"/><path style="opacity:1" fill="#fdfdfe" d="M280.5 77.5a230.08 230.08 0 0 1 61 5.5c18.365 17.261 32.365 37.428 42 60.5a303.774 303.774 0 0 1-17.5 61c-.481 1.978-1.647 3.311-3.5 4a589.958 589.958 0 0 0-77-19c-16.645-22.486-35.645-42.986-57-61.5a432.22 432.22 0 0 1 43-49.5c3.213.31 6.213-.023 9-1z"/><path style="opacity:1" fill="#1e3c6c" d="M156.5 55.5c-4.05 7.748-7.216 15.748-9.5 24a239.498 239.498 0 0 1 42 19c25.291-11.448 51.791-18.114 79.5-20h3a432.22 432.22 0 0 0-43 49.5c21.355 18.514 40.355 39.014 57 61.5a701.313 701.313 0 0 0-91-9 550.451 550.451 0 0 0-33.5 76 378.323 378.323 0 0 1-18.5-75v-3c-3.213-.31-6.213.023-9 1a289.875 289.875 0 0 0-50 6c15.211-21.714 33.378-40.714 54.5-57a181.136 181.136 0 0 1 7.5-47.5c-7.064-3.784-14.731-5.618-23-5.5 10.338-8.176 21.671-14.843 34-20z"/><path style="opacity:1" fill="#c1c1c1" d="M135.5 86.5c.543.06.876.393 1 1a134.858 134.858 0 0 0-5.5 37c-19.747 15.079-36.747 32.746-51 53 10.16-21.595 23.827-40.928 41-58 3.21-11.75 8.044-22.75 14.5-33z"/><path style="opacity:1" fill="#5f93d1" d="M247.5 88.5a8.435 8.435 0 0 1 4 .5 466.345 466.345 0 0 0-63.5 26.5 340.372 340.372 0 0 0-31-16 53.077 53.077 0 0 0-3 14l-1 23a185.43 185.43 0 0 0-32.5 28c11.659.986 23.326.986 35 0 1.28 18.68 2.447 37.347 3.5 56a271.193 271.193 0 0 1-9.5-49 1114.304 1114.304 0 0 0-47 2.5c12.922-15.092 27.256-28.592 43-40.5.51-14.567 2.51-28.9 6-43a185.927 185.927 0 0 1 37 17c19.202-8.18 38.869-14.513 59-19z"/><path style="opacity:1" fill="#fdfdfd" d="M391.5 98.5c2.894 1.382 5.394 3.382 7.5 6 3.796 3.949 6.963 8.283 9.5 13 4.358 28.07 3.858 56.07-1.5 84-.122 1.937-.955 3.27-2.5 4a287.725 287.725 0 0 0-6.5-30c-4.38-12.25-8.88-24.417-13.5-36.5a849.502 849.502 0 0 0 3-42.5l4 2z"/><path style="opacity:1" fill="#c9c9ca" d="M408.5 117.5c27.475 35.415 41.475 75.749 42 121a57.42 57.42 0 0 1-9 9 275.155 275.155 0 0 0-33-20 96.318 96.318 0 0 1-3-17c-.801-1.542-1.134-3.208-1-5 1.545-.73 2.378-2.063 2.5-4 5.358-27.93 5.858-55.93 1.5-84z"/><path style="opacity:1" fill="#c1c1c1" d="M364.5 122.5a148.312 148.312 0 0 1 12 20 298.218 298.218 0 0 1-16 56l-1.5 1a421.55 421.55 0 0 0-66.5-16.5 305.855 305.855 0 0 1 60 4.5l2-1a415.813 415.813 0 0 0 16-43 489.712 489.712 0 0 0-6-21z"/><path style="opacity:1" fill="#9b9b9b" d="M421.5 151.5c12.675 24.004 19.675 49.67 21 77l-.5 8c-2.184.608-4.184-.059-6-2a491.52 491.52 0 0 0-14.5-83z"/><path style="opacity:1" fill="#7f8fab" d="M133.5 179.5c2.787-.977 5.787-1.31 9-1v3c-2.645-1.742-5.645-2.409-9-2z"/><path style="opacity:1" fill="#fdfdfe" d="M133.5 179.5c3.355-.409 6.355.258 9 2a378.323 378.323 0 0 0 18.5 75 550.451 550.451 0 0 1 33.5-76 701.313 701.313 0 0 1 91 9 656.542 656.542 0 0 1 50 72.5c-15.382 24.059-33.048 46.392-53 67-27.634 6.581-55.634 9.081-84 7.5a583.424 583.424 0 0 1-37-77 293.974 293.974 0 0 0-9.5 31 376.122 376.122 0 0 0-6.5 42 136.622 136.622 0 0 1-20-2.5 1814.506 1814.506 0 0 1-41-10.5c15.312 22.479 34.145 41.479 56.5 57 .499 4.321.666 8.654.5 13a51.569 51.569 0 0 1-7-1v-1a24.935 24.935 0 0 0-.5-7c-11.851-7.843-22.518-17.176-32-28 6.357 10.73 14.023 20.73 23 30a8.43 8.43 0 0 1 .5 4 262.646 262.646 0 0 1-35-10c-19.104-20.854-33.104-44.854-42-72a1405.055 1405.055 0 0 0 32.5 13l1.5-1c-13.816-20.636-24.149-42.97-31-67 8.041-22.749 18.708-44.083 32-64a289.875 289.875 0 0 1 50-6z"/><path style="opacity:1" fill="#1f3c6c" d="M83.5 185.5c-13.292 19.917-23.959 41.251-32 64 6.851 24.03 17.184 46.364 31 67l-1.5 1a1405.055 1405.055 0 0 1-32.5-13c-8.935-28.014-11.935-56.68-9-86a192.563 192.563 0 0 0 23-17.5c-1-.667-2-.667-3 0a214.884 214.884 0 0 0-18 7.5c-.198-5.036.802-9.703 3-14a8.435 8.435 0 0 0 .5 4 138.175 138.175 0 0 1 38.5-13z"/><path style="opacity:1" fill="#5c8fcd" d="M39.5 218.5a27.12 27.12 0 0 1 2-10 214.884 214.884 0 0 1 18-7.5c1-.667 2-.667 3 0a192.563 192.563 0 0 1-23 17.5z"/><path style="opacity:1" fill="#182f56" d="M405.5 210.5a96.318 96.318 0 0 0 3 17 275.155 275.155 0 0 1 33 20 57.42 57.42 0 0 0 9-9c.325 7.519-.008 14.852-1 22a18.453 18.453 0 0 0-.5-6 29.964 29.964 0 0 1-7-6 384.674 384.674 0 0 1-36 30c-3.397 28.266-11.73 54.933-25 80a921.012 921.012 0 0 0-22.5-53c22.348-28.363 38.015-60.029 47-95z"/><path style="opacity:1" fill="silver" d="M308.5 232.5a432.342 432.342 0 0 1 18 29.5 405.958 405.958 0 0 1-47 60c-25.254 5.807-50.754 8.307-76.5 7.5a493.83 493.83 0 0 1-13-27 254.707 254.707 0 0 0 17.5 20.5 348.036 348.036 0 0 0 67-12 497.202 497.202 0 0 0 43.5-48.5 177.962 177.962 0 0 0-9.5-30z"/><path style="opacity:1" fill="#1f3c6c" d="M256.5 35.5c47.508 3.435 89.174 20.602 125 51.5 3.939 3.43 7.272 7.263 10 11.5l-4-2a849.502 849.502 0 0 1-3 42.5c4.62 12.083 9.12 24.25 13.5 36.5a287.725 287.725 0 0 1 6.5 30c-.134 1.792.199 3.458 1 5-8.985 34.971-24.652 66.637-47 95-.992-.172-1.658.162-2 1a579.701 579.701 0 0 1-75 24.5c-16.355 17.366-34.189 32.866-53.5 46.5.454 2.886 1.954 5.219 4.5 7v1a741.239 741.239 0 0 1-38 5.5 290.74 290.74 0 0 1-41-.5 537.341 537.341 0 0 1 2.5-21 248.863 248.863 0 0 1-29.5-23.5 1462.578 1462.578 0 0 0 31 3.5 568.054 568.054 0 0 1 7-47c4.008 2.156 7.508 5.489 10.5 10 .654 1.196 1.154 1.196 1.5 0a604.81 604.81 0 0 1-13.5-30 338.347 338.347 0 0 0-11.5 60 509.002 509.002 0 0 1-46-8.5 305.066 305.066 0 0 0 43.5 39.5c.499 5.657.666 11.324.5 17a41.541 41.541 0 0 0-8-1 84.902 84.902 0 0 0-.5-13c-22.355-15.521-41.188-34.521-56.5-57a1814.506 1814.506 0 0 0 41 10.5 136.622 136.622 0 0 0 20 2.5 376.122 376.122 0 0 1 6.5-42 293.974 293.974 0 0 1 9.5-31 583.424 583.424 0 0 0 37 77c28.366 1.581 56.366-.919 84-7.5 19.952-20.608 37.618-42.941 53-67a656.542 656.542 0 0 0-50-72.5 589.958 589.958 0 0 1 77 19c1.853-.689 3.019-2.022 3.5-4a303.774 303.774 0 0 0 17.5-61c-9.635-23.072-23.635-43.239-42-60.5a230.08 230.08 0 0 0-61-5.5c-2.559.302-4.893-.032-7-1a912.65 912.65 0 0 1 27-23.5c-13.852-8.112-28.519-13.946-44-17.5z"/><path style="opacity:1" fill="#5e92d0" d="M386.5 168.5c1.663 1.993 2.83 4.326 3.5 7 5.844 17.215 8.844 34.882 9 53a616.333 616.333 0 0 0-11-41 287.55 287.55 0 0 1-15.5 39.5 2609.166 2609.166 0 0 1-47-14c-1.444-.781-2.777-.614-4 .5a540.8 540.8 0 0 1 31 49.5 319.097 319.097 0 0 1-30 43 584.669 584.669 0 0 0 37.5-10.5l1.5.5c-18.132 8.41-36.798 15.077-56 20a377.444 377.444 0 0 0 39-53 491.655 491.655 0 0 0-40-61 223.781 223.781 0 0 1 29 6 442.916 442.916 0 0 0 36 10.5 367.898 367.898 0 0 0 17-50z"/><path style="opacity:1" fill="#5c8fcc" d="M354.5 84.5a25.595 25.595 0 0 1 10.5 6c4.491 6.97 7.825 14.304 10 22a171.142 171.142 0 0 0-20.5-28zM307.5 57.5a2.427 2.427 0 0 1 2 .5 18.622 18.622 0 0 0-3 8.5 51.374 51.374 0 0 1 18 5.5 810.52 810.52 0 0 0-32-2 253.689 253.689 0 0 1 15-12.5z"/><path style="opacity:1" fill="silver" d="M152.5 257.5c.597.235.93.735 1 1.5a349.585 349.585 0 0 0-15 65.5 342.724 342.724 0 0 1-50-12.5l40-1a257.685 257.685 0 0 1 24-53.5z"/><path style="opacity:1" fill="#5f93d1" d="M153.5 390.5h-4a145.053 145.053 0 0 0-.5-17 305.066 305.066 0 0 1-43.5-39.5 509.002 509.002 0 0 0 46 8.5 338.347 338.347 0 0 1 11.5-60 604.81 604.81 0 0 0 13.5 30c-.346 1.196-.846 1.196-1.5 0-2.992-4.511-6.492-7.844-10.5-10a568.054 568.054 0 0 0-7 47 1462.578 1462.578 0 0 1-31-3.5 248.863 248.863 0 0 0 29.5 23.5 537.341 537.341 0 0 0-2.5 21z"/><path style="opacity:1" fill="#cacacb" d="M449.5 260.5c-5.124 49.906-25.457 92.239-61 127a97.036 97.036 0 0 0-8.5-27c-12.172 21.182-27.672 39.682-46.5 55.5a171.056 171.056 0 0 1-34 5.5 316.283 316.283 0 0 1-35-1 393.958 393.958 0 0 1-32-35v-1c49.905-12.609 91.238-38.609 124-78 .342-.838 1.008-1.172 2-1a921.012 921.012 0 0 1 22.5 53c13.27-25.067 21.603-51.734 25-80a384.674 384.674 0 0 0 36-30 29.964 29.964 0 0 0 7 6c.495 1.973.662 3.973.5 6z"/><path style="opacity:1" fill="#9b9b9b" d="M440.5 261.5c-2.958 41.271-18.125 77.604-45.5 109a1389.953 1389.953 0 0 1 22-45c7.84-21.381 15.673-42.714 23.5-64z"/><path style="opacity:1" fill="#fcfdfd" d="M356.5 306.5c-32.762 39.391-74.095 65.391-124 78-2.546-1.781-4.046-4.114-4.5-7 19.311-13.634 37.145-29.134 53.5-46.5a579.701 579.701 0 0 0 75-24.5z"/><path style="opacity:1" fill="#9a9a9a" d="M355.5 317.5a372.58 372.58 0 0 1 17 41c-10.856 19.364-24.856 36.197-42 50.5-20.373 4.975-41.04 6.642-62 5l-14-14a177.487 177.487 0 0 1 17 7 221.773 221.773 0 0 0 53-5c15.626-11.956 28.792-26.123 39.5-42.5.33-3.366-.003-6.699-1-10a2779.804 2779.804 0 0 1-7.5-32z"/><path style="opacity:1" fill="#c2c2c2" d="M134.5 387.5c-3.109.236-6.109-.097-9-1a8.43 8.43 0 0 0-.5-4c-8.977-9.27-16.643-19.27-23-30 9.482 10.824 20.149 20.157 32 28 .497 2.31.663 4.643.5 7z"/><path style="opacity:1" fill="#193057" d="M388.5 387.5c-28.506 27.426-62.172 45.76-101 55-6.62-6.284-13.286-12.617-20-19l32-2a171.056 171.056 0 0 0 34-5.5c18.828-15.818 34.328-34.318 46.5-55.5a97.036 97.036 0 0 1 8.5 27zM232.5 385.5a393.958 393.958 0 0 0 32 35c0 .667-.333 1-1 1-26.572-2.018-52.072-8.351-76.5-19a352.735 352.735 0 0 1-41.5 17c-1.434-1.72-2.267-3.72-2.5-6a184.52 184.52 0 0 1-1.5-24c2.706.075 5.373.408 8 1 .685 23.902 2.018 23.902 4 0a290.74 290.74 0 0 0 41 .5 741.239 741.239 0 0 0 38-5.5z"/><path style="opacity:1" fill="#9a9a9a" d="M125.5 386.5c2.891.903 5.891 1.236 9 1v1a145.053 145.053 0 0 1-.5 17l-8-6a84.902 84.902 0 0 1-.5-13z"/><path style="opacity:1" fill="#446c9c" d="M149.5 390.5h4c-1.982 23.902-3.315 23.902-4 0z"/><path style="opacity:1" fill="#c8c8c9" d="M90.5 376.5a262.646 262.646 0 0 0 35 10 84.902 84.902 0 0 0 .5 13l8 6c.499-5.657.666-11.324.5-17 2.306.493 4.639.826 7 1a184.52 184.52 0 0 0 1.5 24c.233 2.28 1.066 4.28 2.5 6a352.735 352.735 0 0 0 41.5-17c24.428 10.649 49.928 16.982 76.5 19 1.171.845 2.505 1.511 4 2 6.714 6.383 13.38 12.716 20 19-68.813 12.662-129.48-3.838-182-49.5a116.198 116.198 0 0 1-15-16.5z"/><path style="opacity:1" fill="#8a93a1" d="M264.5 420.5a316.283 316.283 0 0 0 35 1l-32 2c-1.495-.489-2.829-1.155-4-2 .667 0 1-.333 1-1z"/><path style="opacity:1" fill="#9a9a9a" d="M167.5 424.5c.597-.639 1.43-.972 2.5-1 28.433 7.175 57.266 10.175 86.5 9a32.462 32.462 0 0 1 .5-8 266.138 266.138 0 0 1 14.5 13c-35.875 5.133-70.541.8-104-13z"/></svg>